<?xml version="1.0" standalone="no"?>
<!DOCTYPE svg PUBLIC "-//W3C//DTD SVG 20010904//EN"
 "http://www.w3.org/TR/2001/REC-SVG-20010904/DTD/svg10.dtd">
<svg version="1.0" xmlns="http://www.w3.org/2000/svg"
 width="260.000000pt" height="260.000000pt" viewBox="0 0 260.000000 260.000000"
 preserveAspectRatio="xMidYMid meet">
<metadata>
Created by potrace 1.14, written by Peter Selinger 2001-2017
</metadata>
<g transform="translate(0.000000,260.000000) scale(0.100000,-0.100000)"
fill="#000000" stroke="none">
<path d="M520 2015 l0 -585 795 0 795 0 0 585 0 585 -795 0 -795 0 0 -585z
m214 73 c14 -23 -3 -52 -32 -56 -14 -2 -23 -13 -27 -33 -11 -48 -27 -34 -20
19 12 90 13 94 42 90 14 -2 31 -11 37 -20z m41 -20 c-12 -80 -17 -98 -26 -98
-9 0 -6 56 7 118 9 42 26 24 19 -20z m115 32 c0 -5 -10 -10 -22 -10 -29 0 -42
-9 -57 -37 -19 -36 2 -67 41 -59 21 4 28 2 26 -7 -3 -6 -18 -13 -35 -15 -59
-6 -84 68 -38 113 24 25 85 35 85 15z m106 -15 c32 -48 -7 -120 -63 -113 -37
4 -58 44 -43 85 21 56 77 72 106 28z m174 15 c0 -5 -11 -10 -24 -10 -13 0 -32
-3 -41 -6 -24 -9 -37 -51 -25 -75 13 -23 60 -26 60 -4 0 8 -4 15 -10 15 -5 0
-10 5 -10 10 0 21 39 10 42 -12 2 -18 9 -9 27 35 29 72 47 73 56 5 10 -77 16
-78 37 -9 10 33 23 61 28 61 5 0 14 -18 20 -40 6 -22 13 -40 15 -40 3 0 14 18
25 40 11 22 25 40 30 40 6 0 10 -31 10 -70 0 -40 -4 -70 -10 -70 -5 0 -10 21
-10 48 l-1 47 -27 -50 -26 -50 -10 48 c-5 26 -13 47 -16 47 -4 0 -13 -20 -19
-45 -8 -33 -16 -45 -30 -45 -10 0 -21 9 -24 20 -3 12 -14 20 -25 20 -12 0 -23
-9 -27 -20 -5 -16 -15 -20 -55 -20 -39 0 -52 4 -64 22 -37 52 2 118 69 118 19
0 35 -4 35 -10z m350 0 c0 -5 -13 -10 -30 -10 -23 0 -30 -4 -30 -20 0 -13 7
-20 20 -20 11 0 20 -4 20 -10 0 -5 -11 -10 -25 -10 -18 0 -25 -5 -25 -20 0
-16 7 -20 36 -20 21 0 33 -4 29 -10 -3 -5 -25 -10 -47 -10 l-41 0 7 53 c3 28
6 60 6 70 0 13 9 17 40 17 22 0 40 -4 40 -10z m119 1 c9 -6 11 -18 8 -33 -3
-13 -2 -30 3 -38 8 -12 10 -11 10 6 0 34 38 74 69 74 37 0 51 -17 51 -62 0
-66 -70 -106 -103 -58 -13 19 -13 19 -30 0 -11 -13 -29 -20 -52 -20 -36 0 -36
0 -30 38 3 20 8 52 11 70 4 25 10 32 27 32 12 0 28 -4 36 -9z m177 -18 l7 -26
19 26 c32 43 41 31 13 -16 -14 -24 -25 -56 -25 -70 0 -48 -17 -28 -22 26 -3
28 -9 60 -13 70 -4 10 -3 17 4 17 6 0 14 -12 17 -27z m-620 -179 c-3 -9 -6
-22 -6 -30 0 -9 -11 -14 -35 -14 -37 0 -38 2 -29 38 5 17 13 22 41 22 28 0 34
-3 29 -16z m374 -39 c-7 -30 -5 -35 11 -35 12 0 19 -7 19 -20 0 -14 -7 -20
-24 -20 -21 0 -25 -8 -39 -62 -17 -67 -15 -78 13 -78 13 0 17 -5 13 -20 -4
-16 -14 -20 -49 -20 -58 0 -67 18 -49 96 18 75 18 84 1 84 -9 0 -12 7 -9 20 3
11 14 20 24 20 12 0 19 7 19 18 0 11 14 25 33 35 45 22 46 21 37 -18z m-721
-36 c39 -14 51 -35 51 -89 0 -80 -49 -130 -126 -130 -21 0 -45 7 -55 16 -16
14 -18 12 -30 -40 -12 -54 -13 -56 -46 -56 -18 0 -33 2 -33 4 0 5 59 253 66
279 6 18 64 25 64 7 0 -5 15 -3 33 5 40 17 37 17 76 4z m328 -3 c1 -1 -10 -50
-25 -109 l-26 -107 -33 0 c-18 0 -33 3 -33 8 0 4 11 50 25 102 13 53 18 88 11
78 -6 -9 -25 -18 -40 -20 -38 -4 -65 -42 -80 -110 -12 -50 -14 -53 -45 -56
l-33 -3 6 38 c4 21 15 70 25 108 17 68 18 70 50 73 26 3 32 0 28 -11 -4 -11 2
-10 28 3 24 12 49 16 87 12 29 -2 54 -5 55 -6z m240 -8 c17 -14 16 -43 -4
-133 l-16 -75 -34 0 c-38 0 -37 -2 -18 70 22 83 20 110 -9 110 -41 0 -66 -30
-85 -105 -16 -67 -18 -70 -49 -73 -37 -4 -38 -2 -16 82 37 145 32 136 64 136
17 0 30 -4 30 -9 0 -5 17 -3 38 5 38 14 77 11 99 -8z m336 11 c30 -8 42 -18
54 -46 8 -20 12 -46 9 -59 -6 -23 -10 -24 -91 -24 -47 0 -85 -3 -85 -6 0 -40
58 -58 91 -29 17 17 69 12 69 -6 0 -20 -66 -49 -112 -49 -35 0 -54 6 -77 26
-27 22 -31 32 -31 74 0 57 33 104 83 119 43 12 46 12 90 0z m251 5 c26 -10 -1
-54 -34 -54 -37 0 -60 -29 -80 -102 -16 -59 -19 -63 -48 -66 -38 -4 -38 -6 -9
118 l22 95 34 3 c27 3 33 0 28 -12 -5 -13 0 -12 31 4 42 23 36 22 56 14z"/>
<path d="M686 2074 c-8 -21 -1 -28 19 -20 9 3 15 11 13 18 -7 19 -25 20 -32 2z"/>
<path d="M920 2070 c-6 -12 -10 -33 -8 -48 4 -38 47 -38 66 0 25 52 -32 97
-58 48z"/>
<path d="M1210 2061 c0 -5 -3 -16 -6 -25 -4 -11 -1 -16 10 -16 18 0 22 35 6
45 -5 3 -10 2 -10 -4z"/>
<path d="M1597 2076 c-3 -8 -3 -17 0 -20 9 -9 34 15 27 25 -8 13 -21 11 -27
-5z"/>
<path d="M1694 2065 c-13 -21 -15 -31 -6 -50 7 -14 18 -25 25 -25 24 0 49 37
45 67 -4 39 -41 44 -64 8z"/>
<path d="M1590 2015 c0 -16 6 -25 15 -25 21 0 31 30 14 41 -23 14 -29 11 -29
-16z"/>
<path d="M746 1771 c-9 -10 -19 -34 -22 -52 -12 -70 68 -93 101 -29 18 35 19
72 3 88 -18 18 -63 14 -82 -7z"/>
<path d="M1667 1772 c-26 -28 -22 -32 38 -32 52 0 54 1 46 23 -11 29 -61 35
-84 9z"/>
<path d="M990 1290 c-27 -27 -26 -71 3 -98 23 -22 29 -22 308 -22 285 0 286 0
307 23 27 29 28 71 2 97 -19 19 -33 20 -310 20 -277 0 -291 -1 -310 -20z"/>
<path d="M1720 665 l0 -335 245 0 245 0 0 335 0 335 -245 0 -245 0 0 -335z
m480 0 l0 -315 -190 0 -190 0 0 315 0 315 190 0 190 0 0 -315z"/>
<path d="M1920 798 c-114 -78 -84 -252 49 -288 107 -28 217 75 197 184 -8 41
-46 90 -87 111 -43 23 -120 19 -159 -7z m150 -6 c74 -37 102 -131 60 -200 -95
-155 -329 -30 -250 133 37 76 117 104 190 67z"/>
<path d="M638 947 c-145 -41 -239 -194 -208 -340 48 -233 353 -315 506 -135
72 86 91 217 44 312 -63 131 -208 200 -342 163z"/>
</g>
</svg>
